# xmcd
#
# Track frame offsets:
#	150
#	15107
#	30052
#	48707
#	64447
#	79092
#	98165
#	116450
#	134617
#	148072
#	165365
#	184740
#	198600
#	216657
#
# Disc length: 3084 seconds
#
# Revision: 2
# Processed by: cddbd v1.5.2PL0 Copyright (c) Steve Scherf et al.
# Submitted via: EZCDAudioConverter 8.2.2.1
#
DISCID=c40c0a0e
DTITLE=LEANDRO and LEONARDO - E-COLLECTION - CD 1 - SUCESSOS [CD 5050466472021) 
DTITLE=WARNER MUSIC BRASIL LTDA
DYEAR=2003
DGENRE=SERTANEJO
TTITLE0=PENSE EM MIM (BY GILMAR SINISTRO)
TTITLE1=ENTRE TAPAS E BEIJOS (BY GILMAR SINISTRO)
TTITLE2=DESCULPE, MAS EU VOU CHORAR (BY GILMAR SINISTRO)
TTITLE3=PAZ NA CAMA (BY GILMAR SINISTRO)
TTITLE4=NÃO OLHE ASSIM (BY GILMAR SINISTRO)
TTITLE5=EU JURO (I SWEAR) (BY GILMAR SINISTRO)
TTITLE6=TEMPORAL DE AMOR (BY GILMAR SINISTRO)
TTITLE7=SONHO POR SONHO (BY GILMAR SINISTRO)
TTITLE8=DOCE MISTÉRIO (BY GILMAR SINISTRO)
TTITLE9=É POR VOCÊ QUE CANTO (THE SOUND OF SILENCE) (BY GILMAR SINISTRO)
TTITLE10=TALISMÃ (BY GILMAR SINISTRO)
TTITLE11=NÃO APRENDI DIZER ADEUS (BY GILMAR SINISTRO)
TTITLE12=FESTA DE RODEIO (BY GILMAR SINISTRO)
TTITLE13=MEXE MEXE (BY GILMAR SINISTRO)
EXTD=
EXTT0=
EXTT1=
EXTT2=
EXTT3=
EXTT4=
EXTT5=
EXTT6=
EXTT7=
EXTT8=
EXTT9=
EXTT10=
EXTT11=
EXTT12=
EXTT13=
PLAYORDER=
